<?xml version="1.0" encoding="utf-8"?>
<!DOCTYPE svg PUBLIC "-//W3C//DTD SVG 1.1//EN" "http://www.w3.org/Graphics/SVG/1.1/DTD/svg11.dtd">
<svg xmlns="http://www.w3.org/2000/svg" width="24" height="24" viewBox="0 0 24 24">
	<path fill="currentColor" d="M14.78 3.653a3.936 3.936 0 1 1 5.567 5.567l-3.627 3.627a3.936 3.936 0 0 1-5.88-.353a.75.75 0 0 0-1.18.928a5.436 5.436 0 0 0 8.12.486l3.628-3.628a5.436 5.436 0 1 0-7.688-7.688l-3 3a.75.75 0 0 0 1.06 1.061z" />
	<path fill="currentColor" d="M7.28 11.153a3.936 3.936 0 0 1 5.88.353a.75.75 0 0 0 1.18-.928a5.436 5.436 0 0 0-8.12-.486L2.592 13.72a5.436 5.436 0 1 0 7.688 7.688l3-3a.75.75 0 1 0-1.06-1.06l-3 3a3.936 3.936 0 0 1-5.567-5.568z" />
</svg>
